PathFileType	4	(X/Y/Z)	C:/Users/opensim2020/Desktop/walking_exp_matlab/subject02_walking04_straight_04.trc	
DataRate	CameraRate	NumFrames	NumMarkers	Units	OrigDataRate	OrigDataStartFrame	OrigNumFrames	
100.00	100.00	4	42	mm	100.00	2953	239	
Frame#	Time	LFHD			RFHD			LBHD			RBHD			C7			T10			CLAV			STRN			RBAK			LSHO			LUPA			LELB			LFRM			LWRA			LWRB			LFIN			RSHO			RUPA			RELB			RFRM			RWRA			RWRB			RFIN			LASI			RASI			LPSI			RPSI			LTHI			LKNE			LTIB			LANK			LHEE			LTOE			RTHI			RKNE			RTIB			RANK			RHEE			RTOE			*39			*40			*41			
		X1	Y1	Z1	X2	Y2	Z2	X3	Y3	Z3	X4	Y4	Z4	X5	Y5	Z5	X6	Y6	Z6	X7	Y7	Z7	X8	Y8	Z8	X9	Y9	Z9	X10	Y10	Z10	X11	Y11	Z11	X12	Y12	Z12	X13	Y13	Z13	X14	Y14	Z14	X15	Y15	Z15	X16	Y16	Z16	X17	Y17	Z17	X18	Y18	Z18	X19	Y19	Z19	X20	Y20	Z20	X21	Y21	Z21	X22	Y22	Z22	X23	Y23	Z23	X24	Y24	Z24	X25	Y25	Z25	X26	Y26	Z26	X27	Y27	Z27	X28	Y28	Z28	X29	Y29	Z29	X30	Y30	Z30	X31	Y31	Z31	X32	Y32	Z32	X33	Y33	Z33	X34	Y34	Z34	X35	Y35	Z35	X36	Y36	Z36	X37	Y37	Z37	X38	Y38	Z38	X39	Y39	Z39	X40	Y40	Z40	X41	Y41	Z41	X42	Y42	Z42	

30	0.290	1446.90393	760.86908	1733.88611	1304.42053	771.74396	1716.63489	1463.22974	893.95215	1664.80383	1322.88184	916.82837	1647.40979	1378.93506	959.65472	1528.54602	1356.82751	1022.65686	1254.17908	1400.57043	824.47333	1451.81116	1384.40112	776.58575	1280.61084	1298.45654	1017.45734	1360.68677	1562.03064	912.10852	1490.57422	1632.43774	968.77295	1295.00110	1639.85181	995.52576	1156.08447	1651.23669	998.78064	1022.68451	1630.58264	944.30292	894.50690	1651.88684	996.95679	899.53052	1658.31165	982.23096	834.76715	1202.04407	864.10834	1501.45959	1098.09448	856.62903	1320.44226	1065.49548	806.67535	1182.17810	1053.47827	735.07629	1083.66455	1081.34497	647.10876	984.92035	1042.10266	683.69269	964.55481	1045.11707	622.49957	924.78790	1498.98267	795.80298	993.01239	1241.29260	788.46741	974.66400	1409.92456	1003.75238	1031.71277	1296.00378	1004.80841	1031.55273	1578.84741	806.67493	693.27338	1560.13684	759.65448	499.39578	1567.76245	758.66260	306.19260	1562.43555	684.75366	91.64265	1505.56055	700.42145	59.36833	1593.90527	528.44006	78.98457	1193.16858	895.00574	667.95856	1243.57117	932.53088	461.45663	1237.77600	1004.00079	286.61761	1280.35718	1056.79358	100.14176	1332.98145	1103.15991	48.11104	1279.37952	909.14642	41.44629	1363.91223	865.20227	1804.85449	-3360.28857	2845.17578	1033.71606			 
31	0.300	1448.92407	752.36536	1732.30920	1306.42407	763.22314	1715.17859	1465.12000	885.47028	1663.27905	1324.73914	908.32074	1646.02039	1380.91003	951.14886	1527.02051	1359.15747	1014.15643	1252.64160	1401.93689	815.74432	1450.11462	1385.85400	767.80457	1279.18530	1300.71692	1008.93030	1359.01392	1563.92480	903.09332	1489.07324	1634.60437	960.76910	1293.96606	1641.45093	988.28632	1155.09070	1653.15991	993.79614	1021.99384	1632.56604	941.78571	893.01453	1653.99561	994.08209	898.68060	1660.29944	980.70941	833.61646	1203.82043	855.99030	1499.88831	1099.65247	846.56079	1318.90405	1067.20886	796.41425	1181.09546	1055.14612	723.50415	1083.29126	1083.28418	634.15674	986.04205	1044.44397	670.97260	964.95160	1047.27087	609.08368	926.02295	1499.50073	785.76471	991.77197	1242.11072	779.68085	973.54315	1412.26953	994.61786	1029.80994	1298.30554	996.20154	1029.76367	1580.74585	797.01190	692.43530	1561.66626	749.22107	497.95648	1571.26172	743.61963	305.20715	1565.81824	663.63373	91.82006	1510.50757	680.36133	59.19230	1592.99292	506.48151	83.47372	1194.13269	889.18555	667.05249	1244.30542	928.07904	460.78146	1238.47327	1001.80505	286.91592	1280.83118	1056.26099	100.78561	1333.78345	1102.90979	49.09738	1279.24731	909.08228	41.46904	1365.97363	856.63953	1803.48340	-3360.18359	2845.23486	1033.65210			 
32	0.310	1451.01245	743.76776	1730.69824	1308.46692	754.60773	1713.71509	1467.11694	876.92200	1661.72693	1326.64783	899.74976	1644.59216	1382.98340	942.62030	1525.43005	1361.53333	1005.55249	1251.04712	1403.70923	807.14819	1448.58557	1387.29944	761.81519	1277.13525	1302.90051	1000.30853	1357.29724	1566.12744	894.09180	1487.54724	1636.41028	952.26764	1292.48438	1643.63354	981.12122	1154.27039	1655.31128	988.58447	1021.26935	1634.74426	938.90778	891.16718	1656.36987	990.96991	898.07532	1662.44055	978.85376	832.60571	1205.69031	847.83350	1498.31738	1101.69629	838.13965	1317.19067	1069.04016	786.38214	1179.83984	1057.38464	712.62433	1082.95117	1085.30200	621.82062	987.03821	1047.32410	658.01428	965.08075	1049.39185	596.25220	927.03546	1499.88696	775.60486	990.39899	1242.60828	771.62543	972.15613	1414.60522	985.43945	1027.93616	1300.69336	987.41913	1027.89661	1582.50049	786.32532	691.31744	1563.10107	738.71552	496.63571	1574.20935	729.38580	304.14340	1569.10461	644.36688	92.25980	1514.32813	661.88092	58.55256	1592.30066	486.52682	87.22974	1194.94080	883.03381	666.22882	1245.01355	923.62891	460.30817	1239.21069	999.47485	287.30719	1281.35535	1055.77576	101.53351	1334.48474	1102.34802	49.93106	1279.09680	909.00482	41.41480	1368.07275	847.98993	1801.96362	-3360.11084	2845.13672	1033.77368			 
33	0.320	1453.23853	735.19171	1729.24463	1310.60498	745.89215	1712.28650	1469.18152	868.34302	1660.18799	1328.69470	891.22717	1643.22253	1385.13306	934.02557	1523.84009	1363.95605	996.87335	1249.45654	1405.85901	798.50916	1447.22144	1388.73511	752.87805	1275.56543	1305.42383	991.97717	1355.68835	1568.23315	884.92358	1485.88025	1638.62585	943.88617	1291.16333	1645.53052	973.61072	1153.09241	1657.55286	983.12439	1020.51331	1636.83716	935.56073	889.57471	1658.88245	987.45795	897.39490	1664.59607	976.64417	831.60095	1207.64160	839.53162	1496.64331	1103.76611	828.65100	1315.56238	1070.94226	776.75348	1178.47937	1059.33667	702.09442	1082.23499	1087.44910	609.76208	987.68909	1049.53406	646.17926	964.98560	1051.72424	583.78619	927.93091	1500.94653	765.46674	989.35205	1243.44299	763.21155	970.71851	1417.08936	976.15570	1026.10840	1303.15454	978.58154	1026.01575	1584.38293	775.01874	690.59479	1564.45557	728.13220	495.25409	1576.61963	715.96655	302.96558	1572.15271	627.24310	92.63414	1517.96179	645.22815	57.92081	1592.05957	468.90598	90.15480	1196.00623	876.96552	665.54999	1245.47754	918.83264	459.92657	1239.95020	997.08942	287.77252	1281.93579	1055.23328	102.37410	1335.36011	1101.99951	51.24387	1278.92529	908.92084	41.33461	1370.24451	839.35767	1800.48206	-3357.31689	2845.77368	1033.95630			 
